<?xml version="1.0" encoding="iso-8859-1"?>
<!-- Generator: Adobe Illustrator 16.0.0, SVG Export Plug-In . SVG Version: 6.00 Build 0)  -->
<!DOCTYPE svg PUBLIC "-//W3C//DTD SVG 1.1//EN" "http://www.w3.org/Graphics/SVG/1.1/DTD/svg11.dtd">
<svg version="1.1" id="Capa_1" xmlns="http://www.w3.org/2000/svg" xmlns:xlink="http://www.w3.org/1999/xlink" x="0px" y="0px"
	 width="380.721px" height="380.721px" viewBox="0 0 380.721 380.721" style="enable-background:new 0 0 380.721 380.721;"
	 xml:space="preserve">
<g>
	<g>
		<path d="M190.36,0C85.235,0,0,85.235,0,190.36c0,3.916,0.168,7.785,0.395,11.642l103.778-0.441l35.611-139.703
			c1.702-6.663,7.831-11.148,14.837-10.567c6.85,0.569,12.298,6.007,12.885,12.874l14.326,171.277l24.097-113.788
			c1.302-6.164,6.53-10.707,12.827-11.148c6.228-0.418,12.084,3.352,14.222,9.266l29.581,81.871l117.686,1.429
			c0.29-4.193,0.477-8.435,0.477-12.71C380.721,85.235,295.498,0,190.36,0z"/>
		<path d="M239.379,220.407l-16.115-44.535l-33.676,159.164c-1.395,6.542-7.187,11.178-13.792,11.178
			c-0.296,0-0.593-0.023-0.889-0.023c-6.989-0.441-12.589-5.926-13.17-12.896l-15.325-183.18l-17.585,68.992
			c-1.597,6.228-7.186,10.597-13.623,10.62L4.223,230.19c18.3,86.012,94.681,150.531,186.137,150.531
			c91.103,0,167.217-63.996,185.923-149.486l-123.809-1.51C246.594,229.655,241.377,225.949,239.379,220.407z"/>
	</g>
</g>
<g>
</g>
<g>
</g>
<g>
</g>
<g>
</g>
<g>
</g>
<g>
</g>
<g>
</g>
<g>
</g>
<g>
</g>
<g>
</g>
<g>
</g>
<g>
</g>
<g>
</g>
<g>
</g>
<g>
</g>
</svg>
